<mxfile host="app.diagrams.net" agent="Mozilla/5.0 (Windows NT 10.0; Win64; x64) AppleWebKit/537.36 (KHTML, like Gecko) Chrome/130.0.0.0 YaBrowser/24.12.0.0 Safari/537.36" version="26.0.10">
  <diagram id="R2lEEEUBdFMjLlhIrx00" name="Page-1">
    <mxGraphModel dx="1723" dy="722" grid="1" gridSize="10" guides="1" tooltips="1" connect="1" arrows="1" fold="1" page="1" pageScale="1" pageWidth="850" pageHeight="1100" math="0" shadow="0" extFonts="Permanent Marker^https://fonts.googleapis.com/css?family=Permanent+Marker">
      <root>
        <mxCell id="0" />
        <mxCell id="1" parent="0" />
        <mxCell id="QBUybv-ReM2XK8BYm4DX-1" value="" style="rounded=1;whiteSpace=wrap;html=1;" parent="1" vertex="1">
          <mxGeometry x="710" y="450" width="300" height="160" as="geometry" />
        </mxCell>
        <mxCell id="QBUybv-ReM2XK8BYm4DX-2" value="Monitoring" style="text;html=1;align=center;verticalAlign=middle;whiteSpace=wrap;rounded=0;" parent="1" vertex="1">
          <mxGeometry x="825" y="440" width="65" height="40" as="geometry" />
        </mxCell>
        <mxCell id="QBUybv-ReM2XK8BYm4DX-6" value="" style="rounded=0;whiteSpace=wrap;html=1;" parent="1" vertex="1">
          <mxGeometry x="710" y="490" width="120" height="60" as="geometry" />
        </mxCell>
        <mxCell id="QBUybv-ReM2XK8BYm4DX-18" style="edgeStyle=orthogonalEdgeStyle;rounded=0;orthogonalLoop=1;jettySize=auto;html=1;entryX=1;entryY=0.5;entryDx=0;entryDy=0;exitX=0.571;exitY=1.006;exitDx=0;exitDy=0;exitPerimeter=0;" parent="1" source="QBUybv-ReM2XK8BYm4DX-7" target="QBUybv-ReM2XK8BYm4DX-16" edge="1">
          <mxGeometry relative="1" as="geometry" />
        </mxCell>
        <mxCell id="QBUybv-ReM2XK8BYm4DX-7" value="" style="rounded=0;whiteSpace=wrap;html=1;" parent="1" vertex="1">
          <mxGeometry x="890" y="490" width="120" height="60" as="geometry" />
        </mxCell>
        <mxCell id="QBUybv-ReM2XK8BYm4DX-8" value="" style="endArrow=classic;html=1;rounded=0;entryX=-0.003;entryY=0.552;entryDx=0;entryDy=0;entryPerimeter=0;exitX=0.997;exitY=0.546;exitDx=0;exitDy=0;exitPerimeter=0;" parent="1" edge="1">
          <mxGeometry width="50" height="50" relative="1" as="geometry">
            <mxPoint x="830.0000000000001" y="510" as="sourcePoint" />
            <mxPoint x="890.0000000000001" y="510.36" as="targetPoint" />
          </mxGeometry>
        </mxCell>
        <mxCell id="QBUybv-ReM2XK8BYm4DX-9" value="Prometheus" style="text;html=1;align=center;verticalAlign=middle;whiteSpace=wrap;rounded=0;" parent="1" vertex="1">
          <mxGeometry x="920" y="502.5" width="60" height="35" as="geometry" />
        </mxCell>
        <mxCell id="QBUybv-ReM2XK8BYm4DX-10" value="Node-exporter" style="text;html=1;align=center;verticalAlign=middle;whiteSpace=wrap;rounded=0;" parent="1" vertex="1">
          <mxGeometry x="727.5" y="502.5" width="85" height="30" as="geometry" />
        </mxCell>
        <mxCell id="QBUybv-ReM2XK8BYm4DX-14" value="" style="ellipse;whiteSpace=wrap;html=1;" parent="1" vertex="1">
          <mxGeometry x="610" y="680" width="100" height="40" as="geometry" />
        </mxCell>
        <mxCell id="QBUybv-ReM2XK8BYm4DX-19" style="edgeStyle=orthogonalEdgeStyle;rounded=0;orthogonalLoop=1;jettySize=auto;html=1;" parent="1" source="QBUybv-ReM2XK8BYm4DX-16" target="QBUybv-ReM2XK8BYm4DX-14" edge="1">
          <mxGeometry relative="1" as="geometry" />
        </mxCell>
        <mxCell id="QBUybv-ReM2XK8BYm4DX-16" value="" style="rounded=0;whiteSpace=wrap;html=1;" parent="1" vertex="1">
          <mxGeometry x="800" y="550" width="120" height="60" as="geometry" />
        </mxCell>
        <mxCell id="QBUybv-ReM2XK8BYm4DX-17" value="Alertmanager" style="text;html=1;align=center;verticalAlign=middle;whiteSpace=wrap;rounded=0;" parent="1" vertex="1">
          <mxGeometry x="830" y="565" width="60" height="30" as="geometry" />
        </mxCell>
        <mxCell id="QBUybv-ReM2XK8BYm4DX-20" value="email" style="text;html=1;align=center;verticalAlign=middle;whiteSpace=wrap;rounded=0;" parent="1" vertex="1">
          <mxGeometry x="630" y="685" width="60" height="30" as="geometry" />
        </mxCell>
        <mxCell id="QBUybv-ReM2XK8BYm4DX-57" style="edgeStyle=orthogonalEdgeStyle;rounded=0;orthogonalLoop=1;jettySize=auto;html=1;exitX=1;exitY=0.25;exitDx=0;exitDy=0;entryX=0.5;entryY=1;entryDx=0;entryDy=0;" parent="1" source="QBUybv-ReM2XK8BYm4DX-23" target="QBUybv-ReM2XK8BYm4DX-50" edge="1">
          <mxGeometry relative="1" as="geometry" />
        </mxCell>
        <mxCell id="QBUybv-ReM2XK8BYm4DX-23" value="" style="rounded=1;whiteSpace=wrap;html=1;" parent="1" vertex="1">
          <mxGeometry x="470" y="280" width="300" height="160" as="geometry" />
        </mxCell>
        <mxCell id="QBUybv-ReM2XK8BYm4DX-26" value="Certification Authority (CA)" style="text;html=1;align=center;verticalAlign=middle;whiteSpace=wrap;rounded=0;" parent="1" vertex="1">
          <mxGeometry x="570" y="280" width="90" height="30" as="geometry" />
        </mxCell>
        <mxCell id="QBUybv-ReM2XK8BYm4DX-28" style="edgeStyle=orthogonalEdgeStyle;rounded=0;orthogonalLoop=1;jettySize=auto;html=1;exitX=1;exitY=0.5;exitDx=0;exitDy=0;entryX=0.5;entryY=0;entryDx=0;entryDy=0;" parent="1" source="QBUybv-ReM2XK8BYm4DX-27" target="QBUybv-ReM2XK8BYm4DX-7" edge="1">
          <mxGeometry relative="1" as="geometry" />
        </mxCell>
        <mxCell id="QBUybv-ReM2XK8BYm4DX-27" value="Node exporter" style="rounded=0;whiteSpace=wrap;html=1;" parent="1" vertex="1">
          <mxGeometry x="550" y="340" width="120" height="60" as="geometry" />
        </mxCell>
        <mxCell id="QBUybv-ReM2XK8BYm4DX-29" value="" style="rounded=1;whiteSpace=wrap;html=1;" parent="1" vertex="1">
          <mxGeometry x="1030" y="310" width="300" height="160" as="geometry" />
        </mxCell>
        <mxCell id="QBUybv-ReM2XK8BYm4DX-30" value="VPN Server" style="text;html=1;align=center;verticalAlign=middle;whiteSpace=wrap;rounded=0;" parent="1" vertex="1">
          <mxGeometry x="1150" y="310" width="80" height="30" as="geometry" />
        </mxCell>
        <mxCell id="QBUybv-ReM2XK8BYm4DX-37" style="edgeStyle=orthogonalEdgeStyle;rounded=0;orthogonalLoop=1;jettySize=auto;html=1;exitX=0.5;exitY=1;exitDx=0;exitDy=0;entryX=0.996;entryY=0.1;entryDx=0;entryDy=0;entryPerimeter=0;" parent="1" source="QBUybv-ReM2XK8BYm4DX-31" target="QBUybv-ReM2XK8BYm4DX-7" edge="1">
          <mxGeometry relative="1" as="geometry" />
        </mxCell>
        <mxCell id="QBUybv-ReM2XK8BYm4DX-31" value="Node-exportet" style="rounded=0;whiteSpace=wrap;html=1;" parent="1" vertex="1">
          <mxGeometry x="1030" y="360" width="120" height="60" as="geometry" />
        </mxCell>
        <mxCell id="QBUybv-ReM2XK8BYm4DX-38" style="edgeStyle=orthogonalEdgeStyle;rounded=0;orthogonalLoop=1;jettySize=auto;html=1;exitX=0.5;exitY=1;exitDx=0;exitDy=0;entryX=1.004;entryY=0.304;entryDx=0;entryDy=0;entryPerimeter=0;" parent="1" source="QBUybv-ReM2XK8BYm4DX-32" target="QBUybv-ReM2XK8BYm4DX-7" edge="1">
          <mxGeometry relative="1" as="geometry" />
        </mxCell>
        <mxCell id="QBUybv-ReM2XK8BYm4DX-32" value="Openvpn-exporter" style="rounded=0;whiteSpace=wrap;html=1;" parent="1" vertex="1">
          <mxGeometry x="1210" y="360" width="120" height="60" as="geometry" />
        </mxCell>
        <mxCell id="VdleTlFzd7DjqVLOBBpO-11" style="edgeStyle=orthogonalEdgeStyle;rounded=0;orthogonalLoop=1;jettySize=auto;html=1;exitX=0.5;exitY=1;exitDx=0;exitDy=0;entryX=0.5;entryY=0;entryDx=0;entryDy=0;" parent="1" source="QBUybv-ReM2XK8BYm4DX-40" target="VdleTlFzd7DjqVLOBBpO-8" edge="1">
          <mxGeometry relative="1" as="geometry" />
        </mxCell>
        <mxCell id="QBUybv-ReM2XK8BYm4DX-40" value="" style="rounded=1;whiteSpace=wrap;html=1;arcSize=0;" parent="1" vertex="1">
          <mxGeometry x="1030" y="630" width="300" height="150" as="geometry" />
        </mxCell>
        <mxCell id="QBUybv-ReM2XK8BYm4DX-41" value="Remote repository" style="text;html=1;align=center;verticalAlign=middle;whiteSpace=wrap;rounded=0;" parent="1" vertex="1">
          <mxGeometry x="1150" y="630" width="60" height="30" as="geometry" />
        </mxCell>
        <mxCell id="QBUybv-ReM2XK8BYm4DX-46" style="edgeStyle=orthogonalEdgeStyle;rounded=0;orthogonalLoop=1;jettySize=auto;html=1;exitX=0.5;exitY=0;exitDx=0;exitDy=0;entryX=1;entryY=0.75;entryDx=0;entryDy=0;" parent="1" source="QBUybv-ReM2XK8BYm4DX-43" target="QBUybv-ReM2XK8BYm4DX-7" edge="1">
          <mxGeometry relative="1" as="geometry" />
        </mxCell>
        <mxCell id="QBUybv-ReM2XK8BYm4DX-43" value="Node-exporter" style="rounded=0;whiteSpace=wrap;html=1;" parent="1" vertex="1">
          <mxGeometry x="1030" y="690" width="120" height="60" as="geometry" />
        </mxCell>
        <mxCell id="QBUybv-ReM2XK8BYm4DX-47" style="edgeStyle=orthogonalEdgeStyle;rounded=0;orthogonalLoop=1;jettySize=auto;html=1;exitX=0.5;exitY=0;exitDx=0;exitDy=0;entryX=1;entryY=0.5;entryDx=0;entryDy=0;" parent="1" source="QBUybv-ReM2XK8BYm4DX-45" target="QBUybv-ReM2XK8BYm4DX-7" edge="1">
          <mxGeometry relative="1" as="geometry" />
        </mxCell>
        <mxCell id="QBUybv-ReM2XK8BYm4DX-45" value="Nginx-exporter" style="rounded=0;whiteSpace=wrap;html=1;" parent="1" vertex="1">
          <mxGeometry x="1210" y="690" width="120" height="60" as="geometry" />
        </mxCell>
        <mxCell id="QBUybv-ReM2XK8BYm4DX-50" value="admin" style="rounded=1;whiteSpace=wrap;html=1;" parent="1" vertex="1">
          <mxGeometry x="780" y="200" width="200" height="80" as="geometry" />
        </mxCell>
        <mxCell id="QBUybv-ReM2XK8BYm4DX-56" value="Conect to ssh&amp;nbsp;&lt;br&gt;Port 2222" style="text;html=1;align=center;verticalAlign=middle;whiteSpace=wrap;rounded=0;" parent="1" vertex="1">
          <mxGeometry x="1060" y="250" width="60" height="30" as="geometry" />
        </mxCell>
        <mxCell id="QBUybv-ReM2XK8BYm4DX-59" value="*.opvn.zip" style="text;html=1;align=center;verticalAlign=middle;whiteSpace=wrap;rounded=0;" parent="1" vertex="1">
          <mxGeometry x="820" y="325" width="60" height="30" as="geometry" />
        </mxCell>
        <mxCell id="QBUybv-ReM2XK8BYm4DX-60" value="" style="shape=actor;whiteSpace=wrap;html=1;" parent="1" vertex="1">
          <mxGeometry x="865" y="200" width="30" height="30" as="geometry" />
        </mxCell>
        <mxCell id="QBUybv-ReM2XK8BYm4DX-61" value="" style="whiteSpace=wrap;html=1;shape=mxgraph.basic.document" parent="1" vertex="1">
          <mxGeometry x="800" y="330" width="20" height="20" as="geometry" />
        </mxCell>
        <mxCell id="QBUybv-ReM2XK8BYm4DX-62" value="OpenVPN&lt;br&gt;(vpn clitnt)" style="ellipse;whiteSpace=wrap;html=1;" parent="1" vertex="1">
          <mxGeometry x="1000" y="140" width="160" height="80" as="geometry" />
        </mxCell>
        <mxCell id="VdleTlFzd7DjqVLOBBpO-41" style="edgeStyle=orthogonalEdgeStyle;rounded=0;orthogonalLoop=1;jettySize=auto;html=1;exitX=1;exitY=0.25;exitDx=0;exitDy=0;entryX=0;entryY=0.5;entryDx=0;entryDy=0;" parent="1" source="QBUybv-ReM2XK8BYm4DX-64" target="QBUybv-ReM2XK8BYm4DX-62" edge="1">
          <mxGeometry relative="1" as="geometry" />
        </mxCell>
        <mxCell id="QBUybv-ReM2XK8BYm4DX-64" value="Aсcess" style="rounded=0;whiteSpace=wrap;html=1;" parent="1" vertex="1">
          <mxGeometry x="840" y="250" width="80" height="30" as="geometry" />
        </mxCell>
        <mxCell id="VdleTlFzd7DjqVLOBBpO-1" value="port 9110" style="text;html=1;align=center;verticalAlign=middle;whiteSpace=wrap;rounded=0;" parent="1" vertex="1">
          <mxGeometry x="580" y="370" width="60" height="30" as="geometry" />
        </mxCell>
        <mxCell id="VdleTlFzd7DjqVLOBBpO-3" value="port 9110" style="text;html=1;align=center;verticalAlign=middle;whiteSpace=wrap;rounded=0;" parent="1" vertex="1">
          <mxGeometry x="740" y="520" width="60" height="30" as="geometry" />
        </mxCell>
        <mxCell id="VdleTlFzd7DjqVLOBBpO-4" value="port 9110" style="text;html=1;align=center;verticalAlign=middle;whiteSpace=wrap;rounded=0;" parent="1" vertex="1">
          <mxGeometry x="1060" y="720" width="60" height="30" as="geometry" />
        </mxCell>
        <mxCell id="VdleTlFzd7DjqVLOBBpO-5" value="port 9110" style="text;html=1;align=center;verticalAlign=middle;whiteSpace=wrap;rounded=0;" parent="1" vertex="1">
          <mxGeometry x="1060" y="390" width="60" height="30" as="geometry" />
        </mxCell>
        <mxCell id="VdleTlFzd7DjqVLOBBpO-6" value="port 9176" style="text;html=1;align=center;verticalAlign=middle;whiteSpace=wrap;rounded=0;" parent="1" vertex="1">
          <mxGeometry x="1245" y="390" width="60" height="30" as="geometry" />
        </mxCell>
        <mxCell id="VdleTlFzd7DjqVLOBBpO-7" value="port 9113" style="text;html=1;align=center;verticalAlign=middle;whiteSpace=wrap;rounded=0;" parent="1" vertex="1">
          <mxGeometry x="1240" y="720" width="60" height="30" as="geometry" />
        </mxCell>
        <mxCell id="VdleTlFzd7DjqVLOBBpO-8" value="" style="ellipse;whiteSpace=wrap;html=1;" parent="1" vertex="1">
          <mxGeometry x="1135" y="820" width="90" height="50" as="geometry" />
        </mxCell>
        <mxCell id="VdleTlFzd7DjqVLOBBpO-10" value="web interfase&lt;br&gt;(aptly)" style="text;html=1;align=center;verticalAlign=middle;whiteSpace=wrap;rounded=0;" parent="1" vertex="1">
          <mxGeometry x="1150" y="830" width="60" height="30" as="geometry" />
        </mxCell>
        <mxCell id="VdleTlFzd7DjqVLOBBpO-12" value="port 1111" style="text;html=1;align=center;verticalAlign=middle;whiteSpace=wrap;rounded=0;" parent="1" vertex="1">
          <mxGeometry x="1180" y="780" width="60" height="30" as="geometry" />
        </mxCell>
        <mxCell id="VdleTlFzd7DjqVLOBBpO-13" value="port 9093" style="text;html=1;align=center;verticalAlign=middle;whiteSpace=wrap;rounded=0;" parent="1" vertex="1">
          <mxGeometry x="830" y="580" width="60" height="30" as="geometry" />
        </mxCell>
        <mxCell id="VdleTlFzd7DjqVLOBBpO-14" value="port 9090" style="text;html=1;align=center;verticalAlign=middle;whiteSpace=wrap;rounded=0;" parent="1" vertex="1">
          <mxGeometry x="920" y="520" width="60" height="30" as="geometry" />
        </mxCell>
        <mxCell id="VdleTlFzd7DjqVLOBBpO-18" value="194.28.224.250" style="text;html=1;align=center;verticalAlign=middle;whiteSpace=wrap;rounded=0;" parent="1" vertex="1">
          <mxGeometry x="580" y="310" width="60" height="30" as="geometry" />
        </mxCell>
        <mxCell id="VdleTlFzd7DjqVLOBBpO-19" value="150.241.114.219" style="text;html=1;align=center;verticalAlign=middle;whiteSpace=wrap;rounded=0;" parent="1" vertex="1">
          <mxGeometry x="1160" y="330" width="60" height="30" as="geometry" />
        </mxCell>
        <mxCell id="VdleTlFzd7DjqVLOBBpO-20" value="37.46.18.51" style="text;html=1;align=center;verticalAlign=middle;whiteSpace=wrap;rounded=0;" parent="1" vertex="1">
          <mxGeometry x="827.5" y="460" width="60" height="30" as="geometry" />
        </mxCell>
        <mxCell id="VdleTlFzd7DjqVLOBBpO-21" value="37.46.18.242" style="text;html=1;align=center;verticalAlign=middle;whiteSpace=wrap;rounded=0;" parent="1" vertex="1">
          <mxGeometry x="1150" y="655" width="60" height="30" as="geometry" />
        </mxCell>
        <mxCell id="VdleTlFzd7DjqVLOBBpO-31" style="edgeStyle=orthogonalEdgeStyle;rounded=0;orthogonalLoop=1;jettySize=auto;html=1;exitX=1;exitY=0.5;exitDx=0;exitDy=0;entryX=0.608;entryY=0.01;entryDx=0;entryDy=0;entryPerimeter=0;" parent="1" source="QBUybv-ReM2XK8BYm4DX-50" target="QBUybv-ReM2XK8BYm4DX-30" edge="1">
          <mxGeometry relative="1" as="geometry" />
        </mxCell>
        <mxCell id="VdleTlFzd7DjqVLOBBpO-33" value="metrics" style="text;html=1;align=center;verticalAlign=middle;whiteSpace=wrap;rounded=0;" parent="1" vertex="1">
          <mxGeometry x="1090" y="570" width="60" height="30" as="geometry" />
        </mxCell>
        <mxCell id="VdleTlFzd7DjqVLOBBpO-34" value="metrics" style="text;html=1;align=center;verticalAlign=middle;whiteSpace=wrap;rounded=0;" parent="1" vertex="1">
          <mxGeometry x="1270" y="570" width="60" height="30" as="geometry" />
        </mxCell>
        <mxCell id="VdleTlFzd7DjqVLOBBpO-35" value="metrics" style="text;html=1;align=center;verticalAlign=middle;whiteSpace=wrap;rounded=0;" parent="1" vertex="1">
          <mxGeometry x="1090" y="470" width="60" height="30" as="geometry" />
        </mxCell>
        <mxCell id="VdleTlFzd7DjqVLOBBpO-36" value="metrics" style="text;html=1;align=center;verticalAlign=middle;whiteSpace=wrap;rounded=0;" parent="1" vertex="1">
          <mxGeometry x="1270" y="472.5" width="60" height="30" as="geometry" />
        </mxCell>
        <mxCell id="VdleTlFzd7DjqVLOBBpO-37" value="metrics" style="text;html=1;align=center;verticalAlign=middle;whiteSpace=wrap;rounded=0;" parent="1" vertex="1">
          <mxGeometry x="850" y="370" width="60" height="30" as="geometry" />
        </mxCell>
        <mxCell id="VdleTlFzd7DjqVLOBBpO-38" value="metrics" style="text;html=1;align=center;verticalAlign=middle;whiteSpace=wrap;rounded=0;" parent="1" vertex="1">
          <mxGeometry x="830" y="507.5" width="60" height="30" as="geometry" />
        </mxCell>
        <mxCell id="VdleTlFzd7DjqVLOBBpO-40" value="alert" style="text;html=1;align=center;verticalAlign=middle;whiteSpace=wrap;rounded=0;" parent="1" vertex="1">
          <mxGeometry x="660" y="620" width="60" height="30" as="geometry" />
        </mxCell>
      </root>
    </mxGraphModel>
  </diagram>
</mxfile>
